<svg width="35" height="35" viewBox="0 0 35 35" fill="none" xmlns="http://www.w3.org/2000/svg">
<g clip-path="url(#clip0_750_10)">
<path d="M29.8743 29.8744C26.569 33.1797 22.1744 35 17.5 35C12.8255 35 8.4309 33.1797 5.12559 29.8744C1.82034 26.5691 0 22.1745 0 17.5C0 12.8255 1.82034 8.4309 5.12559 5.12559C8.4309 1.82034 12.8255 0 17.5 0C22.1744 0 26.569 1.82034 29.8743 5.12559C33.1797 8.4309 35 12.8256 35 17.5C35 22.1744 33.1797 26.5691 29.8743 29.8744ZM17.5 2.05078C8.98126 2.05078 2.05078 8.98126 2.05078 17.5C2.05078 26.0187 8.98126 32.9492 17.5 32.9492C26.0187 32.9492 32.9492 26.0187 32.9492 17.5C32.9492 8.98126 26.0187 2.05078 17.5 2.05078Z" fill="white"/>
<path d="M10.8845 23.8845C10.396 23.396 10.4018 22.5982 10.8974 22.1026L23.2549 9.74511C23.7505 9.24952 24.5483 9.24375 25.0368 9.73224C25.5253 10.2207 25.5195 11.0186 25.0239 11.5141L12.6664 23.8716C12.1708 24.3672 11.373 24.373 10.8845 23.8845Z" fill="white"/>
<path d="M25.0367 24.1155C24.5482 24.604 23.7504 24.5982 23.2548 24.1026L10.8973 11.7451C10.4017 11.2495 10.396 10.4517 10.8845 9.96321C11.373 9.47472 12.1708 9.48048 12.6664 9.97608L25.0239 22.3336C25.5195 22.8292 25.5252 23.627 25.0367 24.1155Z" fill="white"/>
</g>
<defs>
<clipPath id="clip0_750_10">
<rect width="35" height="35" fill="white" transform="matrix(1 0 0 -1 0 35)"/>
</clipPath>
</defs>
</svg>
