<svg width="60" height="50" viewBox="0 0 60 50" fill="none" xmlns="http://www.w3.org/2000/svg">
<g clip-path="url(#clip0_463_2024)">
<path d="M15.1855 0C15.1855 2.1858 15.0558 4.3435 15.0558 6.5304C15.0558 7.1417 15.1681 7.7441 15.1819 8.3561C15.2015 9.2275 15.2008 10.0966 15.2359 10.9682C15.2915 12.3508 15.4784 13.7341 15.7004 15.1006C15.7643 15.4942 15.8769 15.9054 15.8984 16.3048C15.9543 17.3402 16.0794 18.2949 15.9273 19.3242C15.8548 19.8144 15.9119 20.3065 15.83 20.7988C15.7582 21.2306 15.6512 21.6578 15.5888 22.0909C15.4565 23.0078 15.4275 23.9516 15.3763 24.8751C15.3039 26.1822 15.1914 27.479 15.1855 28.7898C15.1809 29.8102 15.1855 30.8308 15.1855 31.8513C15.1855 33.708 15.143 35.5477 15.0414 37.3986C14.9705 38.6924 14.9875 39.9587 15.1171 41.2431C15.165 41.7181 15.1855 42.1884 15.1855 42.665C15.1855 44.4322 15.1855 46.1994 15.1855 47.9665C15.1855 48.3153 15.2503 48.6556 15.2503 49.0128C15.2503 49.2618 15.2077 49.5561 15.2647 49.7993C15.3205 50.0374 15.3662 50.3168 15.3799 50.5576C15.3879 50.6969 15.5096 50.8518 15.5096 51" stroke="black" stroke-width="0.4"/>
<path d="M21.4674 51C21.4674 49.5866 21.5049 48.1694 21.4112 46.7579C21.3451 45.7625 21.0406 44.7935 21.006 43.7997C20.9792 43.0304 21.0478 42.2671 21.0903 41.4993C21.1473 40.4685 21.1424 39.4372 21.1424 38.4056C21.1424 37.6546 21.2071 36.9171 21.3109 36.1703C21.4932 34.8589 21.8369 33.5496 21.9006 32.2272C21.9292 31.6344 21.9006 31.0357 21.9006 30.4421C21.9006 29.3543 21.8654 28.2627 21.9287 27.1761C21.9607 26.6254 22.0285 26.0805 21.9868 25.5281C21.9544 25.0981 21.9111 24.6647 21.8645 24.2355C21.8147 23.777 21.7331 23.3197 21.7 22.8601C21.6624 22.3379 21.6617 21.8188 21.6118 21.2966C21.5478 20.6278 21.4697 19.9569 21.4393 19.2864C21.4178 18.8126 21.3229 18.3388 21.3229 17.8653C21.3229 16.9843 21.2868 16.1045 21.2868 15.2237C21.2868 13.8984 21.2152 12.5813 21.1825 11.2577C21.1393 9.5039 21.2051 7.7489 21.2146 5.9973C21.2206 4.9 21.2507 3.8027 21.2507 2.7049C21.2507 2.4559 21.2372 2.2044 21.2507 1.9557C21.2696 1.6088 21.3199 1.2583 21.3611 0.9128C21.3906 0.6644 21.5275 0.232 21.3951 0" stroke="black" stroke-width="0.4"/>
<path d="M27.7608 51C27.9218 49.7424 27.7419 48.4642 27.7011 47.2071C27.6208 44.7354 27.7362 42.2513 27.143 39.7958C26.9389 38.9506 26.9954 38.1207 27.0567 37.273C27.088 36.8398 27.0757 36.4039 27.1298 35.9715C27.173 35.6253 27.2779 35.2826 27.2825 34.9351C27.2894 34.4181 27.319 33.917 27.4021 33.4016C27.5587 32.4309 27.5815 31.4357 27.5815 30.4618C27.5815 29.8483 27.5721 29.2347 27.5848 28.6212C27.5988 27.9453 27.7303 27.2729 27.7542 26.5974C27.807 25.1081 27.8567 23.5979 27.7011 22.1101C27.6013 21.1565 27.5697 20.2055 27.5815 19.2506C27.5888 18.662 27.7213 18.0771 27.7476 17.4885C27.7717 16.949 27.7608 16.409 27.7608 15.8695C27.7608 14.1988 27.8699 12.5297 27.8804 10.8588C27.8915 9.0918 28 7.3262 28 5.5585C28 5.002 28 4.4454 28 3.8889C28 3.361 27.9402 2.8338 27.9402 2.3064C27.9402 1.5463 27.8853 0.7627 27.7608 0" stroke="black" stroke-width="0.4"/>
<path d="M34 51C33.6543 49.6264 33.5419 48.2116 33.4272 46.8249C33.2109 44.2118 33.1413 41.5901 33.1176 38.9738C33.0807 34.908 33.0105 30.8443 33.0105 26.7783C33.0105 24.2153 33.0105 21.6523 33.0105 19.0893C33.0105 17.3398 32.9444 15.59 33.1436 13.844C33.2814 12.6365 33.4082 11.4263 33.4272 10.2155C33.4404 9.3691 33.4671 8.5113 33.5545 7.666C33.5899 7.3228 33.6355 6.9806 33.6355 6.6364C33.6355 6.2868 33.5517 5.9416 33.5371 5.5926C33.4988 4.6761 33.5313 3.7572 33.5313 2.8404C33.5313 2.6306 33.5313 2.4208 33.5313 2.211C33.5313 1.6935 33.5898 1.1471 33.4734 0.632999C33.4239 0.413999 33.3751 0.2184 33.3751 0" stroke="black" stroke-width="0.4"/>
<path d="M39.5735 51C39.3375 46.2473 39.2145 41.4952 39.0393 36.7418C38.9638 34.6946 39.0204 32.6426 39.0204 30.5947C39.0204 28.8932 39.0147 27.1925 39.0629 25.4912C39.0979 24.2566 39.1003 23.021 39.1575 21.7867C39.2228 20.3766 39.3777 18.9699 39.4459 17.5596C39.5983 14.4046 39.6161 11.2466 39.6161 8.09C39.6161 7.8253 39.6745 7.5672 39.7012 7.3033C39.759 6.7316 39.7666 6.152 39.7839 5.5787C39.7939 5.248 39.8004 4.9509 39.8714 4.6248C40.0539 3.7871 40.0239 2.9057 39.895 2.066C39.8505 1.7759 39.7437 1.4809 39.7437 1.1879C39.7437 0.785401 39.5735 0.402 39.5735 0" stroke="black" stroke-width="0.4"/>
<path d="M45.6872 50.5C45.7891 49.1231 45.7497 47.7376 45.7497 46.3576C45.7497 45.3341 45.6247 44.322 45.6247 43.2986C45.6247 42.6174 45.7585 41.9553 45.8087 41.2778C45.8706 40.4415 45.7577 39.6154 45.6594 38.7882C45.4121 36.7081 45.3473 34.6148 45.4719 32.5278C45.5486 31.2419 45.4754 29.9505 45.5031 28.6632C45.5292 27.4495 45.6872 26.2547 45.6872 25.0382C45.6872 24.2413 45.7412 23.4549 45.7983 22.6597C45.9777 20.1618 46.0784 17.6295 46.0205 15.125C46.0025 14.3494 45.8747 13.5958 45.8087 12.8368C45.674 11.2875 45.7037 9.7606 45.6872 8.2014C45.6594 5.5969 45.6247 2.9848 45.6247 0.375" stroke="black" stroke-width="0.4"/>
<path d="M51.6871 50.5C51.6871 48.2488 51.6871 45.9977 51.6871 43.7465C51.6871 40.5474 51.5372 37.3602 51.4093 34.1632C51.3591 32.9073 51.3256 31.6548 51.2149 30.4028C51.197 30.2002 51.2572 29.8245 51.1732 29.625C51.1043 29.4613 51.1209 29.2965 51.1385 29.1181C51.1903 28.5939 51.1871 28.075 51.1871 27.5486C51.1871 26.6447 51.1871 25.7407 51.1871 24.8368C51.1871 23.8917 51.3121 22.9652 51.3121 22.0208C51.3121 19.9884 51.3121 17.956 51.3121 15.9236C51.3121 13.8351 51.4371 11.7496 51.4371 9.6597C51.4371 9.0847 51.5462 8.495 51.6038 7.9236C51.7503 6.4696 51.8121 5.0434 51.8121 3.5833C51.8121 2.6525 51.6288 1.7302 51.8399 0.795101C51.8881 0.581701 51.9399 -0.0299 51.7496 -0.125" stroke="black" stroke-width="0.4"/>
<path d="M58.1881 50.5625C57.8044 47.5132 57.4292 44.4576 57.0145 41.4167C56.9261 40.768 56.9907 40.0949 56.9069 39.441C56.7549 38.2554 56.987 37.1832 57.0006 36.0069C57.0171 34.5871 57.0006 33.1664 57.0006 31.7465C57.0006 30.4546 57.1256 29.1713 57.1256 27.8785C57.1256 26.9887 57.0083 26.0178 57.1395 25.1319C57.1889 24.7987 57.1816 24.4748 57.1916 24.1389C57.2168 23.2943 57.3659 22.4557 57.4104 21.6111C57.4941 20.0206 57.4857 18.4208 57.5597 16.8299C57.611 15.7262 57.5799 14.5902 57.5597 13.4861C57.5312 11.9358 57.1881 10.4124 57.1881 8.8611C57.1881 6.8368 57.2511 4.8169 57.3097 2.7951C57.3368 1.8584 57.4044 0.937999 57.4972 0.0103989C57.5212 -0.230301 57.7706 -0.99 57.6256 -1.0625" stroke="black" stroke-width="0.4"/>
<path d="M3.56729 50C3.56729 47.3726 3.5733 44.7462 3.54024 42.1192C3.47098 36.6148 3.22809 31.147 3.07748 25.6536C2.9707 21.7587 2.99783 17.9742 2.34728 14.266C2.16591 13.2321 1.89693 12.1991 2.04078 11.086C2.18305 9.985 2.37175 8.8384 2.60571 7.8054C2.85515 6.7041 3.46507 6.091 3.67547 4.8894C3.75872 4.4139 3.72956 3.8664 3.72956 3.3685C3.72956 2.8582 3.73041 2.3897 3.78364 1.8854C3.84567 1.2978 3.82663 0.4835 4 0" stroke="black" stroke-width="0.4" stroke-linecap="round"/>
<path d="M9.1243 49.9375C9.1243 46.0468 8.827 42.162 8.4368 38.2917C8.21824 36.1238 8.3743 33.9479 8.3743 31.7743C8.3743 28.7325 8.48665 25.7111 8.6868 22.6736C8.89039 19.5838 8.98635 16.4893 9.18332 13.3993C9.34492 10.8642 9.29823 8.3287 9.4611 5.7951C9.5504 4.4061 9.5618 2.976 9.5618 1.5833C9.5618 0.971302 9.56756 0.3298 9.3743 -0.25" stroke="black" stroke-width="0.4"/>
</g>
<defs>
<clipPath id="clip0_463_2024">
<rect width="50" height="60" fill="white" transform="translate(0 50) rotate(-90)"/>
</clipPath>
</defs>
</svg>
