<svg fill="none" height="51" viewBox="0 0 30 51" width="30" xmlns="http://www.w3.org/2000/svg">
    <path
            d="M14.9991 -0.000113478C14.8001 -0.000465041 14.609 0.0782843 14.4681 0.218909L0.96811 13.7189C0.680321 14.0168 0.688618 14.4917 0.986532 14.7794C1.2772 15.0601 1.73796 15.0601 2.02856 14.7794L14.999 1.81044L27.968 14.7794C28.266 15.0672 28.7408 15.0589 29.0286 14.761C29.3093 14.4704 29.3093 14.0096 29.0286 13.7189L15.5286 0.218909C15.3881 0.0787062 15.1977 -4.31652e-05 14.9991 -0.000113478Z"
            fill="#ffffff"></path>
    <path
            d="M14.9993 1C14.5851 1 14.2493 1.46641 14.2493 2.0417L14.2493 49.9583C14.2493 50.5336 14.5851 51 14.9993 51C15.4135 51 15.7493 50.5336 15.7493 49.9583L15.7493 2.0416C15.7493 1.4664 15.4135 1 14.9993 1Z"
            fill="#ffffff"></path>
</svg>