<svg width="24" height="24" viewBox="0 0 24 24" fill="none" xmlns="http://www.w3.org/2000/svg">
<path d="M23.0707 21.9183L23.1414 21.8475L23.0707 21.7768L16.79 15.4957C18.045 13.9551 18.7982 11.9902 18.7982 9.84887C18.7982 4.90623 14.7919 0.9 9.8491 0.9C4.90724 0.899955 0.9 4.90618 0.9 9.84883C0.9 14.7906 4.90723 18.7977 9.8491 18.7977C11.991 18.7977 13.9555 18.0445 15.4961 16.7896L21.7768 23.0707L21.8475 23.1414L21.9182 23.0707L23.0707 21.9183ZM2.03148 9.84883C2.03148 5.53831 5.53799 2.03141 9.8491 2.03141C14.1593 2.03141 17.6667 5.53832 17.6667 9.84883C17.6667 14.1593 14.1593 17.6662 9.8491 17.6662C5.53799 17.6662 2.03148 14.1594 2.03148 9.84883Z" fill="#003049" stroke="#003049" stroke-width="0.2"/>
</svg>